<svg width="40" height="40" viewBox="0 0 40 40" fill="none" xmlns="http://www.w3.org/2000/svg">
<rect x="1.5" y="1.5" width="37" height="37" rx="18.5" fill="#F0F2F5" stroke="white" stroke-width="3"/>
<path d="M20 22.5C21.3807 22.5 22.5 21.3807 22.5 20C22.5 18.6193 21.3807 17.5 20 17.5C18.6193 17.5 17.5 18.6193 17.5 20C17.5 21.3807 18.6193 22.5 20 22.5Z" fill="#2C3A47"/>
<path d="M26.6665 13.3334H24.0248L22.9915 12.2084C22.8362 12.0378 22.6471 11.9016 22.4361 11.8083C22.2252 11.7151 21.9971 11.6668 21.7665 11.6667H18.2332C17.7665 11.6667 17.3165 11.8667 16.9998 12.2084L15.9748 13.3334H13.3332C12.4165 13.3334 11.6665 14.0834 11.6665 15V25C11.6665 25.9167 12.4165 26.6667 13.3332 26.6667H26.6665C27.5832 26.6667 28.3332 25.9167 28.3332 25V15C28.3332 14.0834 27.5832 13.3334 26.6665 13.3334ZM19.9998 24.1667C17.6998 24.1667 15.8332 22.3 15.8332 20C15.8332 17.7 17.6998 15.8334 19.9998 15.8334C22.2998 15.8334 24.1665 17.7 24.1665 20C24.1665 22.3 22.2998 24.1667 19.9998 24.1667Z" fill="#2C3A47"/>
</svg>
