<svg width="24" height="22" viewBox="0 0 24 22" fill="none" xmlns="http://www.w3.org/2000/svg">
<path d="M13.6603 0.00426489C7.64113 -0.166813 2.70987 4.8311 2.70987 11.0021H0.593092C0.0609423 11.0021 -0.19922 11.662 0.179198 12.0408L3.47853 15.4623C3.71504 15.7067 4.08163 15.7067 4.31814 15.4623L7.61747 12.0408C7.69919 11.9547 7.7544 11.8454 7.77615 11.7269C7.7979 11.6084 7.78521 11.4859 7.73969 11.3748C7.69416 11.2637 7.61783 11.1691 7.52032 11.1027C7.42282 11.0364 7.30849 11.0014 7.19175 11.0021H5.07498C5.07498 6.23638 8.83551 2.38713 13.4711 2.44823C17.8702 2.50933 21.5716 6.33414 21.6308 10.8799C21.6899 15.6579 17.9648 19.556 13.3529 19.556C11.449 19.556 9.68695 18.8839 8.29153 17.7475C8.06503 17.5631 7.78084 17.4712 7.49303 17.4892C7.20522 17.5072 6.93385 17.6339 6.73056 17.8452C6.23388 18.3584 6.26936 19.2261 6.82516 19.666C8.6831 21.1842 10.9842 22.007 13.3529 22C19.3248 22 24.1614 16.9043 23.9959 10.6844C23.8421 4.9533 19.2065 0.163123 13.6603 0.00426489ZM13.0572 6.11418C12.5724 6.11418 12.1703 6.52965 12.1703 7.03067V11.5276C12.1703 11.9553 12.395 12.3585 12.7498 12.5785L16.4393 14.8391C16.8651 15.0958 17.409 14.9491 17.6574 14.5214C17.9057 14.0815 17.7638 13.5194 17.3499 13.2628L13.9441 11.1732V7.01845C13.9441 6.52965 13.5421 6.11418 13.0572 6.11418Z" fill="#2C3A47"/>
</svg>
