<svg width="22" height="29" viewBox="0 0 22 29" fill="none" xmlns="http://www.w3.org/2000/svg">
<path d="M10.9999 16.3333C9.53325 16.3333 8.33325 17.5333 8.33325 19C8.33325 20.4667 9.53325 21.6667 10.9999 21.6667C12.4666 21.6667 13.6666 20.4667 13.6666 19C13.6666 17.5333 12.4666 16.3333 10.9999 16.3333ZM18.9999 9.66667H17.6666V7C17.6666 3.32 14.6799 0.333333 10.9999 0.333333C7.95992 0.333333 5.30658 2.38667 4.54658 5.33333C4.35992 6.05333 4.78659 6.77333 5.50659 6.96C5.67643 7.00408 5.85332 7.01421 6.02709 6.98979C6.20086 6.96537 6.3681 6.90689 6.51922 6.8177C6.67034 6.72852 6.80237 6.61038 6.90774 6.47006C7.01311 6.32974 7.08975 6.17 7.13325 6C7.35385 5.14197 7.85342 4.38161 8.55338 3.83854C9.25335 3.29546 10.114 3.00048 10.9999 3C13.1999 3 14.9999 4.8 14.9999 7V9.66667H2.99992C1.53325 9.66667 0.333252 10.8667 0.333252 12.3333V25.6667C0.333252 27.1333 1.53325 28.3333 2.99992 28.3333H18.9999C20.4666 28.3333 21.6666 27.1333 21.6666 25.6667V12.3333C21.6666 10.8667 20.4666 9.66667 18.9999 9.66667ZM18.9999 24.3333C18.9999 25.0667 18.3999 25.6667 17.6666 25.6667H4.33325C3.59992 25.6667 2.99992 25.0667 2.99992 24.3333V13.6667C2.99992 12.9333 3.59992 12.3333 4.33325 12.3333H17.6666C18.3999 12.3333 18.9999 12.9333 18.9999 13.6667V24.3333Z" fill="#2C3A47"/>
</svg>
