<svg width="24" height="22" viewBox="0 0 24 22" fill="none" xmlns="http://www.w3.org/2000/svg">
<path d="M10.9091 21.6667C4.884 21.6667 0 16.8912 0 11C0 5.1088 4.884 0.333335 10.9091 0.333335C12.6029 0.332091 14.2737 0.717092 15.7887 1.45775C17.3036 2.19841 18.6211 3.27432 19.6364 4.6H16.68C15.4203 3.51388 13.8667 2.80625 12.2059 2.56203C10.545 2.31781 8.84734 2.54737 7.3166 3.22316C5.78586 3.89896 4.48707 4.99228 3.57608 6.37193C2.66508 7.75159 2.18058 9.35896 2.18072 11.0012C2.18086 12.6434 2.66564 14.2507 3.57686 15.6302C4.4881 17.0097 5.78707 18.1028 7.31793 18.7784C8.84879 19.4539 10.5465 19.6832 12.2073 19.4387C13.8681 19.1942 15.4215 18.4863 16.6811 17.4H19.6375C18.6221 18.7258 17.3044 19.8018 15.7893 20.5425C14.2741 21.2831 12.6031 21.6681 10.9091 21.6667ZM18.5455 15.2667V12.0667H9.81818V9.93333H18.5455V6.73333L24 11L18.5455 15.2667Z" fill="#CD4559"/>
</svg>
