<svg width="132" height="42" viewBox="0 0 132 42" fill="none" xmlns="http://www.w3.org/2000/svg">
<path d="M71.5763 19.9937C79.9141 16.1566 81.1472 3.63522 69.2873 3.63522H55.5527L50.477 13.7331H52.8656L46.7945 37.867H62.7185C74.3359 37.9678 79.5605 24.0881 71.5763 19.9937ZM62.7185 29.0819H58.7375L60.2303 23.6292H64.0121C68.4908 24.5378 65.7044 29.2837 62.7185 29.0819ZM65.1071 17.4691H61.7234L62.7185 12.7232H66.5003C70.1545 13.6321 66.9983 17.6712 65.1071 17.4691Z" fill="#005FAF"/>
<path d="M104.18 16.5316L109.394 7.19257L102.339 3.45859L101.419 4.61098C97.6125 2.56679 77.6822 5.38928 76.4342 25.3369C77.1802 42.0706 95.6609 39.0605 97.4736 37.9987L102.556 27.338C97.5783 30.6649 87.3852 32.262 86.954 22.2683C87.8481 14.0273 97.4379 10.9497 104.18 16.5316ZM130.199 3.63522H114.17L109.075 13.4308H111.692L99.6122 37.867H111.305L113.705 31.973H120.883L121.062 37.867H131.825L130.199 3.63522ZM116.957 24.0375L120.883 14.5308L121.062 24.0375H116.957Z" fill="#005FAF"/>
<path d="M30.0989 36.2328L30.7216 36.0495L30.0387 35.092L30.0989 36.2328ZM19.8761 36.0698L19.7557 36.9257C20.0656 36.895 20.4472 37.166 20.5993 36.5588C20.5879 36.0857 20.2329 36.0597 19.8761 36.0698ZM24.8371 36.0495C24.7855 35.8164 24.5937 35.6447 24.114 35.8051L24.2746 36.681C24.6687 36.5924 24.8714 36.3559 24.8371 36.0495ZM13.6301 35.3326L13.4383 36.1109C13.7465 36.1239 14.1075 36.3776 14.3122 35.9163C14.3259 35.6274 14.3376 35.3396 13.6301 35.3326ZM24.4153 37.3334L24.556 38.2301C24.8851 38.2385 25.1853 38.0378 25.0982 37.6189C25.0143 37.2158 24.6807 37.2795 24.4153 37.3334Z" fill="#005FAF"/>
<path d="M37.4764 4.09674C26.8413 -1.40028 14.1401 -1.2474 4.00695 3.857C-1.21828 13.1899 -1.38466 26.2481 4.00695 37.8137C15.1706 43.5456 27.5176 43.168 37.5549 38.0535C42.2722 28.2341 43.0512 16.4183 37.4764 4.09674ZM19.5149 31.9649L18.8845 31.9721C18.7284 30.2048 18.312 28.7194 17.4188 27.5826C13.3228 22.3711 4.94983 26.2947 7.10128 17.4378C8.21996 12.9099 20.98 10.2395 19.5149 31.9649ZM7.11641 23.2172C8.01077 25.0642 13.6141 25.3667 15.5593 26.7806C18.6447 29.0231 18.2018 31.973 18.2018 31.973H17.4741C16.0415 27.5178 12.0209 31.0453 8.80041 29.8454C6.77852 29.1158 5.31055 25.9531 7.11641 23.2172ZM17.3254 37.741L17.6268 35.3161L18.169 35.3569L17.9279 38.0262C17.6847 39.2021 15.9568 39.0449 15.7388 37.9243L16.0199 35.1531L16.6625 35.2553L16.3814 37.578C16.4171 38.3468 17.1771 38.3007 17.3254 37.741ZM14.44 38.4032L13.8219 38.2518C13.8944 37.7335 14.5002 36.679 13.3028 36.679L12.9695 38.0572L12.2874 37.9275L13.012 34.6189C14.783 34.8146 14.938 35.3147 14.9731 35.8515C14.9032 36.2678 14.7939 36.5585 14.4403 36.6298C14.8541 37.0108 14.4451 37.8094 14.44 38.4032ZM10.5141 34.6973C10.3437 34.9267 10.0027 35.7278 9.95333 36.3663C9.90082 37.043 10.5415 36.9005 10.701 36.8215C10.8297 36.758 10.9253 36.2146 10.9253 36.2146L10.4767 36.0628L10.6262 35.608L11.6359 35.9493L11.1499 37.6565L10.7387 37.5424L10.7761 37.2769C10.2727 37.5097 9.35118 37.3351 9.24303 36.7459C9.13487 36.2725 9.46248 34.8372 9.99071 34.1666C10.5041 33.5146 11.7549 34.1518 11.7854 34.5459C11.8157 34.9385 11.663 35.3804 11.663 35.3804L11.1921 35.2903C11.1921 35.2903 11.221 35.1485 11.2621 34.9249C11.3054 34.6881 10.6967 34.4509 10.5141 34.6973ZM19.6955 37.4758L19.5751 38.9432L19.0731 38.923L19.2537 35.4383C20.5074 35.4646 21.226 35.6407 21.202 36.5389C21.1272 37.7659 20.1478 37.49 19.6955 37.4758ZM20.9452 31.9727H20.1053C20.0308 28.9551 20.6027 23.4355 19.04 19.3734C17.856 16.2941 14.8595 14.9089 14.1954 12.4215C13.1441 8.48422 14.9334 4.22414 20.9452 3.89609C26.157 4.43899 27.7582 8.52129 26.8693 12.3221C25.3408 16.1224 23.812 15.5763 21.9089 19.3619C20.3544 23.4198 20.9463 28.7362 20.9452 31.9727ZM30.2595 37.5575L29.6771 37.7613L29.4962 34.2564L30.1791 34.0731L31.8662 36.9665L31.4042 37.2723L30.8417 36.4575L30.199 36.7019L30.2595 37.5575ZM23.4645 31.9727H22.7927C23.3463 24.2228 32.9449 25.9065 33.8222 23.2172C35.3392 25.8833 34.7939 28.1313 33.2098 29.2837C29.2733 32.1485 25.4986 27.1637 23.4645 31.9727ZM27.0262 35.8868L27.3276 37.4967C27.5151 37.8676 27.6424 37.799 27.93 37.7616C28.2636 37.5166 28.194 37.2781 28.1309 36.9668L28.7134 36.8854C28.8652 38.0517 28.3187 38.1707 27.91 38.2506C27.0337 38.3143 26.8619 38.1412 26.6247 36.9874C26.4866 35.9997 26.248 34.9568 27.0665 34.7663C28.41 34.5581 28.3307 35.1716 28.4523 35.6016L27.8698 35.7038C27.7768 35.3343 27.6429 35.1878 27.3476 35.2151C27.0785 35.3404 26.968 35.5434 27.0262 35.8868ZM25.8011 37.5575C25.8291 38.065 25.6593 38.4021 25.3391 38.5153L23.9733 38.8005L23.4311 35.4383C23.7113 35.392 25.0854 34.8812 25.4193 35.8054C25.5839 36.3698 25.4133 36.5722 25.2184 36.8241C25.5879 36.9445 25.7126 37.2364 25.8011 37.5575ZM22.2938 20.6848C25.3365 11.9926 32.2988 13.5287 33.843 17.4381C35.9585 25.2828 29.1466 23.1315 24.7832 26.3483C23.134 27.8036 22.2662 29.4731 22.2533 32.004H21.5056C21.4608 26.9063 21.3795 23.2965 22.2938 20.6848Z" fill="#005FAF"/>
</svg>
