<svg width="36" height="36" viewBox="0 0 36 36" fill="none" xmlns="http://www.w3.org/2000/svg">
<path d="M32.04 15.98V30C32.04 31.1 31.14 32 30.04 32H6.00004C4.90004 32 4.00004 31.1 4.00004 30V6C4.00004 4.9 4.90004 4 6.00004 4H20C21.1 4 22 3.1 22 2C22 0.9 21.1 0 20 0H4.04004C1.84004 0 0.0400391 1.8 0.0400391 4V32C0.0400391 34.2 1.84004 36 4.04004 36H32C33.0609 36 34.0783 35.5786 34.8285 34.8284C35.5786 34.0783 36 33.0609 36 32V15.98C36 14.88 35.12 14 34.02 14C32.92 14 32.04 14.88 32.04 15.98ZM20.5 15.5L18.92 12C18.8405 11.8254 18.7124 11.6774 18.5511 11.5736C18.3897 11.4698 18.2019 11.4146 18.01 11.4146C17.8182 11.4146 17.6304 11.4698 17.469 11.5736C17.3077 11.6774 17.1796 11.8254 17.1 12L15.52 15.5L12 17.08C11.8255 17.1595 11.6774 17.2876 11.5736 17.449C11.4698 17.6103 11.4146 17.7981 11.4146 17.99C11.4146 18.1819 11.4698 18.3697 11.5736 18.531C11.6774 18.6924 11.8255 18.8205 12 18.9L15.5 20.48L17.08 24C17.1596 24.1746 17.2877 24.3226 17.449 24.4264C17.6104 24.5302 17.7982 24.5854 17.99 24.5854C18.1819 24.5854 18.3697 24.5302 18.5311 24.4264C18.6924 24.3226 18.8205 24.1746 18.9 24L20.48 20.5L24 18.92C24.1746 18.8405 24.3226 18.7124 24.4264 18.551C24.5302 18.3897 24.5854 18.2019 24.5854 18.01C24.5854 17.8181 24.5302 17.6303 24.4264 17.469C24.3226 17.3076 24.1746 17.1795 24 17.1L20.5 15.5ZM29.88 6.12L28.68 3.48C28.42 2.9 27.58 2.9 27.3 3.48L26.1 6.12L23.46 7.32C22.88 7.58 22.88 8.42 23.46 8.7L26.1 9.9L27.3 12.54C27.56 13.12 28.4 13.12 28.68 12.54L29.88 9.9L32.52 8.7C33.1 8.44 33.1 7.6 32.52 7.32L29.88 6.12Z" fill="#8593A3"/>
</svg>
